<svg width="96" height="73" viewBox="0 0 96 73" fill="none" xmlns="http://www.w3.org/2000/svg">
<path d="M43.7569 54.0356C43.7569 59.2313 41.8122 63.7343 37.9226 67.5445C34.0331 71.1815 29.0829 73 23.0718 73C16.1768 73 10.6077 70.6619 6.36464 65.9858C2.12155 61.1364 0 55.1613 0 48.0605C0 32.4733 4.24309 20.8695 12.7293 13.2491C21.2155 5.45551 30.674 1.03914 41.105 0V15.847C35.6243 16.7129 30.674 19.1376 26.2541 23.121C21.8343 26.9312 19.5359 31.694 19.3591 37.4093C20.7735 36.5433 22.6298 36.1103 24.9282 36.1103C30.7624 36.1103 35.3591 37.7556 38.7182 41.0463C42.0774 44.1637 43.7569 48.4935 43.7569 54.0356ZM96 54.0356C96 59.2313 94.0552 63.7343 90.1657 67.5445C86.2762 71.1815 81.326 73 75.3149 73C68.4199 73 62.8508 70.6619 58.6077 65.9858C54.3646 61.1364 52.2431 55.1613 52.2431 48.0605C52.2431 32.4733 56.4862 20.8695 64.9724 13.2491C73.4586 5.45551 82.9171 1.03914 93.3481 0V15.847C87.8674 16.7129 82.9171 19.1376 78.4972 23.121C74.0773 26.9312 71.779 31.694 71.6022 37.4093C73.0166 36.5433 74.8729 36.1103 77.1713 36.1103C83.0055 36.1103 87.6022 37.7556 90.9613 41.0463C94.3204 44.1637 96 48.4935 96 54.0356Z" fill="#23BBE0" fill-opacity="0.1"/>
</svg>
